<mxfile host="drawio-plugin" modified="2023-07-25T15:41:44.802Z" agent="5.0 (Macintosh; Intel Mac OS X 10_15_7) AppleWebKit/537.36 (KHTML, like Gecko) Chrome/104.0.5112.102 Safari/537.36" version="20.5.3" etag="gVFdPNqq4fVFTxkcPrrC" type="embed"><diagram id="C5RBs43oDa-KdzZeNtuy" name="Page-1"><mxGraphModel dx="503" dy="416" grid="1" gridSize="10" guides="1" tooltips="1" connect="1" arrows="1" fold="1" page="1" pageScale="1" pageWidth="827" pageHeight="1169" math="0" shadow="0"><root><mxCell id="WIyWlLk6GJQsqaUBKTNV-0"/><mxCell id="WIyWlLk6GJQsqaUBKTNV-1" parent="WIyWlLk6GJQsqaUBKTNV-0"/><mxCell id="19" value="perso" style="swimlane;fontStyle=0;childLayout=stackLayout;horizontal=1;startSize=30;horizontalStack=0;resizeParent=1;resizeParentMax=0;resizeLast=0;collapsible=1;marginBottom=0;whiteSpace=wrap;html=1;" vertex="1" parent="WIyWlLk6GJQsqaUBKTNV-1"><mxGeometry x="40" y="30" width="140" height="300" as="geometry"/></mxCell><mxCell id="31" value="String: Name" style="text;html=1;align=center;verticalAlign=middle;resizable=0;points=[];autosize=1;strokeColor=none;fillColor=none;" vertex="1" parent="19"><mxGeometry y="30" width="140" height="30" as="geometry"/></mxCell><mxCell id="63" value="Boolean: IsEnemy" style="text;html=1;align=center;verticalAlign=middle;resizable=0;points=[];autosize=1;strokeColor=none;fillColor=none;" vertex="1" parent="19"><mxGeometry y="60" width="140" height="30" as="geometry"/></mxCell><mxCell id="34" value="Int: Level" style="text;html=1;align=center;verticalAlign=middle;resizable=0;points=[];autosize=1;strokeColor=none;fillColor=none;" vertex="1" parent="19"><mxGeometry y="90" width="140" height="30" as="geometry"/></mxCell><mxCell id="35" value="arr&amp;lt;obj&amp;gt;: Inventory" style="text;html=1;align=center;verticalAlign=middle;resizable=0;points=[];autosize=1;strokeColor=none;fillColor=none;" vertex="1" parent="19"><mxGeometry y="120" width="140" height="30" as="geometry"/></mxCell><mxCell id="36" value="Int: InHands" style="text;html=1;align=center;verticalAlign=middle;resizable=0;points=[];autosize=1;strokeColor=none;fillColor=none;" vertex="1" parent="19"><mxGeometry y="150" width="140" height="30" as="geometry"/></mxCell><mxCell id="37" value="double: Attack" style="text;html=1;align=center;verticalAlign=middle;resizable=0;points=[];autosize=1;strokeColor=none;fillColor=none;" vertex="1" parent="19"><mxGeometry y="180" width="140" height="30" as="geometry"/></mxCell><mxCell id="38" value="double: AttackCof" style="text;html=1;align=center;verticalAlign=middle;resizable=0;points=[];autosize=1;strokeColor=none;fillColor=none;" vertex="1" parent="19"><mxGeometry y="210" width="140" height="30" as="geometry"/></mxCell><mxCell id="39" value="double: Defence" style="text;html=1;align=center;verticalAlign=middle;resizable=0;points=[];autosize=1;strokeColor=none;fillColor=none;" vertex="1" parent="19"><mxGeometry y="240" width="140" height="30" as="geometry"/></mxCell><mxCell id="40" value="double: DefenceCof" style="text;html=1;align=center;verticalAlign=middle;resizable=0;points=[];autosize=1;strokeColor=none;fillColor=none;" vertex="1" parent="19"><mxGeometry y="270" width="140" height="30" as="geometry"/></mxCell></root></mxGraphModel></diagram></mxfile>